<?xml version="1.0" standalone="no"?>
<!DOCTYPE svg PUBLIC "-//W3C//DTD SVG 20010904//EN"
 "http://www.w3.org/TR/2001/REC-SVG-20010904/DTD/svg10.dtd">
<svg version="1.0" xmlns="http://www.w3.org/2000/svg"
 width="400.000000pt" height="400.000000pt" viewBox="0 0 400.000000 400.000000"
 preserveAspectRatio="xMidYMid meet">
<metadata>
Created by potrace 1.14, written by Peter Selinger 2001-2017
</metadata>
<g transform="translate(0.000000,400.000000) scale(0.100000,-0.100000)"
fill="#000000" stroke="none">
<path d="M1893 3917 l-103 -61 34 -60 c18 -34 64 -117 102 -186 l69 -125 3
-850 3 -850 -941 -544 c-518 -300 -943 -548 -946 -552 -2 -4 79 -55 181 -114
l185 -107 190 110 191 110 569 -330 570 -329 564 325 c311 179 570 326 575
326 6 0 94 -48 195 -106 102 -58 188 -105 193 -103 5 2 91 51 191 109 l182
105 0 1100 0 1100 -188 108 c-103 59 -189 107 -192 107 -3 0 -4 -394 -2 -876
1 -482 -1 -874 -6 -872 -4 1 -90 50 -190 108 l-182 104 0 661 0 660 -190 109
-190 108 -72 -42 c-40 -24 -74 -44 -76 -45 -2 -2 31 -84 72 -184 l76 -181 0
-430 c0 -236 -2 -430 -4 -430 -2 0 -86 47 -187 105 l-184 105 -5 882 -5 882
-185 107 c-102 59 -187 108 -190 108 -3 0 -51 -28 -107 -62z m289 -2677 c381
-221 551 -325 549 -335 -1 -5 -165 -105 -364 -221 l-362 -212 -3 218 -2 219
-186 107 c-126 73 -182 110 -175 117 17 17 345 206 358 206 7 1 91 -44 185
-99z"/>
<path d="M1043 2992 l-562 -327 -1 -657 c0 -362 2 -658 4 -658 3 0 177 99 388
221 211 122 465 268 566 326 l182 105 0 219 c0 120 -3 219 -6 219 -3 0 -172
-97 -375 -215 -203 -118 -371 -215 -374 -215 -3 0 -5 98 -5 218 l1 217 377
215 377 216 3 222 c1 122 -1 222 -5 221 -5 0 -261 -147 -570 -327z"/>
</g>
</svg>
